<?xml version="1.0"?>
<svg version="1.1" xmlns="http://www.w3.org/2000/svg" width="400" height="50" style=""><path fill="#cc7447" d="M15.98291015625,37.181640625q0-0.72509765625,0.072509765625-1.732177734375t0.330322265625-1.667724609375q0.0966796875-0.2255859375,0.410888671875-0.443115234375t0.66064453125-0.265869140625t0.6123046875,0.08056640625t0.265869140625,0.56396484375q0,0.75732421875-0.0322265625,1.91748046875l0,0.49951171875q0,0.88623046875,0.08056640625,1.69189453125q0.11279296875,1.0634765625,0.4833984375,1.78857421875q0.322265625,0.66064453125,1.01513671875,0.66064453125l0.12890625,0q0.95068359375-0.064453125,1.40185546875-0.78955078125t0.6123046875-1.72412109375q0.14501953125-0.91845703125,0.14501953125-1.93359375l0-0.193359375q-0.01611328125-1.1279296875-0.01611328125-1.98193359375q0-3.39990234375-0.2255859375-6.81591796875t-0.2255859375-6.84814453125q0-0.56396484375-0.04833984375-1.224609375q-0.01611328125-0.24169921875-0.01611328125-0.4833984375q0-0.38671875,0.04833984375-0.7412109375q0.08056640625-0.56396484375,0.410888671875-0.942626953125t1.119873046875-0.378662109375q0.43505859375,0,0.797607421875,0.104736328125t0.652587890625,0.427001953125q0.37060546875,4.189453125,0.6123046875,8.515869140625t0.24169921875,8.548095703125q0,1.4501953125-0.24169921875,2.91650390625t-0.88623046875,2.642578125t-1.78857421875,1.91748046875t-2.91650390625,0.7412109375q-1.0634765625,0-1.7724609375-0.378662109375t-1.135986328125-1.039306640625t-0.6123046875-1.538818359375t-0.185302734375-1.893310546875z M28.497612304688,35.7958984375q0-0.91845703125,0.233642578125-1.893310546875t0.7412109375-1.75634765625t1.281005859375-1.27294921875t1.869140625-0.491455078125q0.82177734375,0,1.732177734375,0.281982421875t1.667724609375,0.8056640625t1.232666015625,1.281005859375t0.475341796875,1.69189453125q0,1.1279296875-0.410888671875,2.14306640625t-1.152099609375,1.812744140625t-1.732177734375,1.2568359375t-2.151123046875,0.459228515625q-0.95068359375,0-1.65966796875-0.346435546875t-1.184326171875-0.926513671875t-0.708984375-1.36962890625t-0.233642578125-1.67578125z M30.866264648438,35.763671875q0,0.2900390625,0.088623046875,0.85400390625t0.265869140625,1.103759765625t0.459228515625,0.9345703125t0.684814453125,0.362548828125q0.85400390625-0.0966796875,1.409912109375-0.555908203125t0.90234375-1.119873046875t0.4833984375-1.43408203125t0.136962890625-1.46630859375q0-0.88623046875-0.346435546875-1.482421875t-1.135986328125-0.966796875q0,0.0322265625,0.0322265625,0.0322265625t0.0322265625-0.0322265625l-0.40283203125-0.0966796875q-0.1611328125-0.064453125-0.394775390625-0.14501953125t-0.459228515625-0.3544921875q-0.62841796875,0.2255859375-0.974853515625,0.580078125t-0.523681640625,0.862060546875t-0.217529296875,1.216552734375t-0.040283203125,1.7080078125z M40.706162109375,31.33251953125q0-0.66064453125,0.38671875-1.135986328125t0.942626953125-0.7734375t1.216552734375-0.443115234375t1.224609375-0.14501953125q0.43505859375,0,1.16015625,0.12890625t1.41796875,0.38671875t1.200439453125,0.6767578125t0.507568359375,0.98291015625q0,0.2578125-0.193359375,0.459228515625t-0.40283203125,0.201416015625q-0.43505859375,0-0.78955078125-0.281982421875t-0.733154296875-0.59619140625t-0.829833984375-0.59619140625t-1.01513671875-0.281982421875t-1.023193359375,0.362548828125t-0.459228515625,0.958740234375q0,0.98291015625,0.69287109375,1.925537109375t1.522705078125,1.98193359375t1.522705078125,2.183349609375t0.69287109375,2.52978515625q0,0.59619140625-0.249755859375,1.007080078125t-0.66064453125,0.668701171875t-0.926513671875,0.394775390625t-0.9990234375,0.136962890625q-0.53173828125,0-1.24072265625-0.249755859375t-1.33740234375-0.66064453125t-1.055419921875-0.958740234375t-0.427001953125-1.14404296875q0-0.2900390625,0.410888671875-0.37060546875t0.604248046875-0.08056640625q0.0966796875,0,0.298095703125,0.064453125t0.394775390625,0.14501953125t0.346435546875,0.17724609375t0.120849609375,0.20947265625q0.1611328125,0.193359375,0.491455078125,0.572021484375t0.66064453125,0.6123046875t0.580078125,0.169189453125t0.249755859375-0.72509765625q0-1.2568359375-0.6767578125-2.312255859375t-1.474365234375-2.0625t-1.474365234375-1.998046875t-0.6767578125-2.118896484375z M51.400063476563,34.07177734375q0-0.322265625,0.072509765625-0.85400390625t0.169189453125-1.055419921875t0.2255859375-0.974853515625t0.30615234375-0.580078125q0.12890625-0.12890625,0.443115234375-0.2578125t0.66064453125-0.185302734375t0.64453125,0.04833984375t0.362548828125,0.427001953125q-0.2255859375,0.2900390625-0.410888671875,0.990966796875t-0.281982421875,1.554931640625q-0.08056640625,0.72509765625-0.08056640625,1.49853515625l0,0.27392578125q0.01611328125,0.90234375,0.1611328125,1.65966796875t0.443115234375,1.248779296875t0.829833984375,0.491455078125q1.1279296875,0,2.0625-1.039306640625t1.65966796875-2.537841796875t1.27294921875-3.182373046875t0.9345703125-2.940673828125q0.0966796875-0.37060546875,0.459228515625-0.49951171875t0.781494140625-0.088623046875t0.749267578125,0.201416015625t0.394775390625,0.38671875q-0.322265625,2.70703125-0.507568359375,5.4140625t-0.185302734375,5.4462890625q0,0.53173828125,0.04833984375,0.974853515625t-0.04833984375,0.75732421875t-0.427001953125,0.49951171875t-1.055419921875,0.185302734375q-0.1611328125,0-0.410888671875-0.0322265625t-0.515625-0.104736328125t-0.451171875-0.217529296875t-0.185302734375-0.33837890625q0-1.1923828125,0.088623046875-2.44921875t0.249755859375-2.43310546875q-0.43505859375,0.62841796875-0.958740234375,1.248779296875t-1.152099609375,1.119873046875t-1.353515625,0.797607421875t-1.56298828125,0.298095703125q-1.1923828125,0-1.877197265625-0.56396484375t-1.03125-1.409912109375t-0.43505859375-1.844970703125t-0.088623046875-1.93359375z M66.55734375,36.150390625q0-1.1279296875,0.249755859375-2.65869140625t0.845947265625-2.900390625t1.571044921875-2.328369140625t2.457275390625-0.958740234375q1.3857421875,0,2.07861328125,0.797607421875t0.69287109375,2.151123046875q0,0.88623046875-0.330322265625,1.941650390625t-0.942626953125,1.998046875t-1.4501953125,1.571044921875t-1.869140625,0.62841796875l-0.4189453125-0.0322265625q0,0.43505859375,0.12890625,1.168212890625t0.378662109375,1.458251953125t0.64453125,1.27294921875t0.958740234375,0.5478515625q0.82177734375,0,1.5791015625-0.66064453125t1.43408203125-1.46630859375t1.2568359375-1.46630859375t1.0634765625-0.66064453125q0.2578125,0,0.53173828125,0.08056640625t0.30615234375,0.451171875q0,0.2255859375-0.120849609375,0.37060546875t-0.217529296875,0.322265625q-0.49951171875,0.85400390625-1.087646484375,1.62744140625t-1.329345703125,1.40185546875t-1.619384765625,0.990966796875t-1.941650390625,0.362548828125q-1.3857421875,0-2.30419921875-0.491455078125t-1.482421875-1.3212890625t-0.813720703125-1.91748046875t-0.249755859375-2.280029296875z M69.44162109375,34.92578125l0.451171875,0.40283203125q0.322265625,0.2900390625,0.64453125,0.12890625t0.580078125-0.588134765625t0.475341796875-1.055419921875t0.38671875-1.2890625t0.249755859375-1.2890625t0.08056640625-1.04736328125l0-0.5478515625t-0.04833984375-0.580078125t-0.169189453125-0.459228515625t-0.378662109375-0.233642578125q-0.08056640625-0.01611328125-0.14501953125-0.01611328125q-0.5478515625,0-0.9345703125,0.69287109375q-0.4189453125,0.7734375-0.6767578125,1.877197265625t-0.37060546875,2.263916015625t-0.14501953125,1.740234375z M86.301591796875,19.4248046875q0-0.75732421875,0.185302734375-1.103759765625t0.53173828125-0.4833984375t0.837890625-0.104736328125t1.152099609375,0.0322265625q1.67578125,0,3.3837890625,0.515625t3.07763671875,1.506591796875t2.20751953125,2.441162109375t0.837890625,3.33544921875q0,1.2568359375-0.362548828125,2.376708984375t-1.023193359375,2.0947265625t-1.546875,1.780517578125t-1.94970703125,1.40185546875q0.43505859375,0.43505859375,1.1279296875,1.538818359375t1.36962890625,2.3525390625t1.200439453125,2.425048828125t0.620361328125,1.7724609375l-0.193359375,0.2900390625q-0.43505859375,0.2578125-1.04736328125,0.27392578125q-0.2900390625,0-0.75732421875-0.072509765625t-0.59619140625-0.427001953125q-0.66064453125-1.85302734375-1.442138671875-3.81884765625t-1.925537109375-3.544921875l0-0.0322265625q-0.40283203125,0.1611328125-0.797607421875,0.314208984375t-0.797607421875,0.281982421875q0.12890625,1.78857421875,0.265869140625,3.520751953125t0.136962890625,3.504638671875q0,0.2255859375-0.217529296875,0.362548828125t-0.491455078125,0.217529296875t-0.555908203125,0.11279296875t-0.459228515625,0.0322265625q-0.1611328125,0-0.459228515625-0.0322265625t-0.572021484375-0.11279296875t-0.475341796875-0.233642578125t-0.201416015625-0.410888671875q0-1.78857421875-0.08056640625-3.569091796875t-0.17724609375-3.552978515625q-0.49951171875-0.322265625-0.49951171875-0.837890625q0-0.40283203125,0.38671875-0.5478515625q-0.193359375-3.39990234375-0.443115234375-6.78369140625t-0.249755859375-6.81591796875z M89.218095703125,18.92529296875q0.2255859375,3.49658203125,0.507568359375,6.91259765625t0.539794921875,6.91259765625q1.1279296875-0.322265625,2.102783203125-1.119873046875t1.683837890625-1.796630859375t1.103759765625-2.17529296875t0.394775390625-2.33642578125q0-1.2890625-0.515625-2.473388671875t-1.36962890625-2.070556640625q-0.8701171875-0.88623046875-1.998046875-1.3857421875q-0.9990234375-0.43505859375-2.0947265625-0.43505859375l-0.2900390625,0z M101.49109863281,35.7958984375q0-0.91845703125,0.233642578125-1.893310546875t0.7412109375-1.75634765625t1.281005859375-1.27294921875t1.869140625-0.491455078125q0.82177734375,0,1.732177734375,0.281982421875t1.667724609375,0.8056640625t1.232666015625,1.281005859375t0.475341796875,1.69189453125q0,1.1279296875-0.410888671875,2.14306640625t-1.152099609375,1.812744140625t-1.732177734375,1.2568359375t-2.151123046875,0.459228515625q-0.95068359375,0-1.65966796875-0.346435546875t-1.184326171875-0.926513671875t-0.708984375-1.36962890625t-0.233642578125-1.67578125z M103.85975097656,35.763671875q0,0.2900390625,0.088623046875,0.85400390625t0.265869140625,1.103759765625t0.459228515625,0.9345703125t0.684814453125,0.362548828125q0.85400390625-0.0966796875,1.409912109375-0.555908203125t0.90234375-1.119873046875t0.4833984375-1.43408203125t0.136962890625-1.46630859375q0-0.88623046875-0.346435546875-1.482421875t-1.135986328125-0.966796875q0,0.0322265625,0.0322265625,0.0322265625t0.0322265625-0.0322265625l-0.40283203125-0.0966796875q-0.1611328125-0.064453125-0.394775390625-0.14501953125t-0.459228515625-0.3544921875q-0.62841796875,0.2255859375-0.974853515625,0.580078125t-0.523681640625,0.862060546875t-0.217529296875,1.216552734375t-0.040283203125,1.7080078125z M113.6996484375,31.33251953125q0-0.66064453125,0.38671875-1.135986328125t0.942626953125-0.7734375t1.216552734375-0.443115234375t1.224609375-0.14501953125q0.43505859375,0,1.16015625,0.12890625t1.41796875,0.38671875t1.200439453125,0.6767578125t0.507568359375,0.98291015625q0,0.2578125-0.193359375,0.459228515625t-0.40283203125,0.201416015625q-0.43505859375,0-0.78955078125-0.281982421875t-0.733154296875-0.59619140625t-0.829833984375-0.59619140625t-1.01513671875-0.281982421875t-1.023193359375,0.362548828125t-0.459228515625,0.958740234375q0,0.98291015625,0.69287109375,1.925537109375t1.522705078125,1.98193359375t1.522705078125,2.183349609375t0.69287109375,2.52978515625q0,0.59619140625-0.249755859375,1.007080078125t-0.66064453125,0.668701171875t-0.926513671875,0.394775390625t-0.9990234375,0.136962890625q-0.53173828125,0-1.24072265625-0.249755859375t-1.33740234375-0.66064453125t-1.055419921875-0.958740234375t-0.427001953125-1.14404296875q0-0.2900390625,0.410888671875-0.37060546875t0.604248046875-0.08056640625q0.0966796875,0,0.298095703125,0.064453125t0.394775390625,0.14501953125t0.346435546875,0.17724609375t0.120849609375,0.20947265625q0.1611328125,0.193359375,0.491455078125,0.572021484375t0.66064453125,0.6123046875t0.580078125,0.169189453125t0.249755859375-0.72509765625q0-1.2568359375-0.6767578125-2.312255859375t-1.474365234375-2.0625t-1.474365234375-1.998046875t-0.6767578125-2.118896484375z M125.05419433594,35.48974609375q0-1.095703125,0.298095703125-2.11083984375t0.894287109375-1.812744140625t1.490478515625-1.27294921875t2.070556640625-0.475341796875q0.72509765625,0,1.603271484375,0.217529296875t1.651611328125,0.64453125t1.2890625,1.087646484375t0.515625,1.5146484375q0,0.40283203125-0.136962890625,0.6123046875t-0.555908203125,0.20947265625l-0.17724609375-0.0322265625q0.46728515625,1.2568359375,0.8056640625,2.578125t0.66064453125,2.642578125q0.12890625,0.2578125,0.193359375,0.459228515625t0.064453125,0.394775390625q0,0.2578125-0.14501953125,0.427001953125t-0.378662109375,0.249755859375t-0.4833984375,0.11279296875t-0.443115234375,0.0322265625q-0.69287109375,0-1.039306640625-0.24169921875t-0.49951171875-0.66064453125t-0.185302734375-0.942626953125t-0.12890625-1.055419921875q-0.193359375,0.62841796875-0.507568359375,1.224609375t-0.7412109375,1.071533203125t-1.007080078125,0.75732421875t-1.30517578125,0.281982421875q-1.0634765625,0-1.78857421875-0.6123046875t-1.168212890625-1.506591796875t-0.64453125-1.909423828125t-0.201416015625-1.88525390625z M127.34228027344,35.26416015625q0,0.59619140625,0.08056640625,1.2568359375t0.265869140625,1.30517578125t0.475341796875,1.216552734375t0.72509765625,1.007080078125q0.78955078125-0.85400390625,1.168212890625-2.07861328125t0.6767578125-2.360595703125t0.6767578125-1.94970703125t1.168212890625-0.813720703125q0.49951171875,0,0.837890625,0.17724609375q-0.1611328125-0.40283203125-0.53173828125-0.781494140625t-0.829833984375-0.69287109375t-0.95068359375-0.515625t-0.926513671875-0.201416015625q-0.12890625,0-0.298095703125,0.040283203125t-0.265869140625,0.008056640625q-0.66064453125,0.193359375-1.087646484375,0.668701171875t-0.69287109375,1.119873046875t-0.378662109375,1.3212890625t-0.11279296875,1.27294921875z M139.01909179687,30.97802734375q0-0.66064453125,0.233642578125-1.11181640625t0.990966796875-0.451171875q0.2900390625,0,0.72509765625,0.088623046875t0.49951171875,0.443115234375q0.1611328125,0.95068359375,0.17724609375,2.0625t0.11279296875,2.0947265625q0.37060546875-0.72509765625,0.95068359375-1.56298828125t1.3212890625-1.546875t1.611328125-1.17626953125t1.7724609375-0.46728515625q0.064453125,0,0.24169921875,0.04833984375t0.330322265625,0.136962890625t0.185302734375,0.201416015625t-0.17724609375,0.20947265625q-0.064453125,0.193359375-0.27392578125,0.233642578125t-0.37060546875,0.040283203125q-0.0966796875,0-0.30615234375-0.08056640625q-1.1923828125,0.62841796875-2.0302734375,1.7080078125t-1.36962890625,2.392822265625t-0.7734375,2.771484375t-0.24169921875,2.843994140625q0,0.69287109375-0.314208984375,0.837890625t-1.007080078125,0.14501953125q-0.37060546875,0-0.781494140625-0.08056640625t-0.572021484375-0.515625q-0.2900390625-0.91845703125-0.475341796875-2.11083984375t-0.281982421875-2.457275390625t-0.136962890625-2.489501953125t-0.040283203125-2.20751953125z M150.47031738281,35.10302734375q0-1.482421875,0.346435546875-2.908447265625t0.588134765625-2.843994140625q0.064453125-0.37060546875,0.507568359375-0.459228515625t0.749267578125-0.088623046875q0.53173828125,0,0.85400390625,0.1611328125q0.12890625,0.064453125,0.24169921875,0.14501953125t0.11279296875,0.20947265625q0,1.3857421875-0.330322265625,2.70703125t-0.330322265625,2.8037109375q0,0.49951171875,0.072509765625,0.942626953125t0.136962890625,0.878173828125l0.0966796875,0.46728515625q0,0.12890625,0.01611328125,0.2255859375t0.04833984375,0.2255859375q0,0.2900390625-0.410888671875,0.394775390625t-0.717041015625,0.104736328125q-0.46728515625,0-0.862060546875-0.185302734375t-0.620361328125-0.636474609375l-0.2255859375-0.46728515625q-0.193359375-0.37060546875-0.193359375-0.829833984375t-0.08056640625-0.845947265625z M151.50156738281,25.40283203125l0-0.30615234375q0-0.75732421875,0.378662109375-1.353515625t1.135986328125-0.59619140625q0.0966796875,0,0.185302734375,0.01611328125t0.185302734375,0.01611328125q0.193359375,0.0322265625,0.507568359375,0.153076171875t0.314208984375,0.378662109375l0,0.0322265625q-0.064453125,0.12890625-0.08056640625,0.265869140625t-0.08056640625,0.233642578125l0.0322265625-0.0322265625q-0.193359375,0.49951171875-0.314208984375,0.8056640625t-0.265869140625,0.491455078125t-0.362548828125,0.265869140625t-0.620361328125,0.08056640625q-0.064453125,0-0.2255859375-0.01611328125t-0.346435546875-0.064453125t-0.314208984375-0.12890625t-0.12890625-0.24169921875z M157.18423828125,35.7958984375q0-0.91845703125,0.233642578125-1.893310546875t0.7412109375-1.75634765625t1.281005859375-1.27294921875t1.869140625-0.491455078125q0.82177734375,0,1.732177734375,0.281982421875t1.667724609375,0.8056640625t1.232666015625,1.281005859375t0.475341796875,1.69189453125q0,1.1279296875-0.410888671875,2.14306640625t-1.152099609375,1.812744140625t-1.732177734375,1.2568359375t-2.151123046875,0.459228515625q-0.95068359375,0-1.65966796875-0.346435546875t-1.184326171875-0.926513671875t-0.708984375-1.36962890625t-0.233642578125-1.67578125z M159.552890625,35.763671875q0,0.2900390625,0.088623046875,0.85400390625t0.265869140625,1.103759765625t0.459228515625,0.9345703125t0.684814453125,0.362548828125q0.85400390625-0.0966796875,1.409912109375-0.555908203125t0.90234375-1.119873046875t0.4833984375-1.43408203125t0.136962890625-1.46630859375q0-0.88623046875-0.346435546875-1.482421875t-1.135986328125-0.966796875q0,0.0322265625,0.0322265625,0.0322265625t0.0322265625-0.0322265625l-0.40283203125-0.0966796875q-0.1611328125-0.064453125-0.394775390625-0.14501953125t-0.459228515625-0.3544921875q-0.62841796875,0.2255859375-0.974853515625,0.580078125t-0.523681640625,0.862060546875t-0.217529296875,1.216552734375t-0.040283203125,1.7080078125z"/><path fill="#" d=""/></svg>
